<mxfile host="app.diagrams.net" modified="2021-05-13T08:46:09.338Z" agent="5.0 (Windows NT 10.0; Win64; x64) AppleWebKit/537.36 (KHTML, like Gecko) Chrome/90.0.4430.212 Safari/537.36" etag="7UopBNeCiPs01XSDbopS" version="14.6.12" type="github">
  <diagram id="C5RBs43oDa-KdzZeNtuy" name="Page-1">
    <mxGraphModel dx="1038" dy="588" grid="1" gridSize="10" guides="1" tooltips="1" connect="1" arrows="1" fold="1" page="1" pageScale="1" pageWidth="827" pageHeight="1169" math="0" shadow="0">
      <root>
        <mxCell id="WIyWlLk6GJQsqaUBKTNV-0" />
        <mxCell id="WIyWlLk6GJQsqaUBKTNV-1" parent="WIyWlLk6GJQsqaUBKTNV-0" />
        <mxCell id="g2LM-X_P6zVzMJMQ8mb0-7" value="&lt;font style=&quot;font-size: 14px&quot;&gt;hysz-business-service&lt;br&gt;业务层&lt;/font&gt;" style="rounded=1;whiteSpace=wrap;html=1;arcSize=19;" vertex="1" parent="WIyWlLk6GJQsqaUBKTNV-1">
          <mxGeometry x="320" y="40" width="160" height="80" as="geometry" />
        </mxCell>
        <mxCell id="g2LM-X_P6zVzMJMQ8mb0-31" value="" style="edgeStyle=orthogonalEdgeStyle;rounded=0;orthogonalLoop=1;jettySize=auto;html=1;" edge="1" parent="WIyWlLk6GJQsqaUBKTNV-1" source="g2LM-X_P6zVzMJMQ8mb0-8" target="g2LM-X_P6zVzMJMQ8mb0-21">
          <mxGeometry relative="1" as="geometry" />
        </mxCell>
        <mxCell id="g2LM-X_P6zVzMJMQ8mb0-8" value="&lt;font style=&quot;font-size: 14px&quot;&gt;hysz-yunyuan-app-api&lt;br&gt;云元APP&lt;/font&gt;" style="rounded=1;whiteSpace=wrap;html=1;" vertex="1" parent="WIyWlLk6GJQsqaUBKTNV-1">
          <mxGeometry x="40" y="40" width="160" height="80" as="geometry" />
        </mxCell>
        <mxCell id="g2LM-X_P6zVzMJMQ8mb0-13" value="&lt;font style=&quot;font-size: 24px&quot;&gt;云元APP-云元抢购&lt;/font&gt;" style="text;html=1;strokeColor=none;fillColor=none;align=center;verticalAlign=middle;whiteSpace=wrap;rounded=0;" vertex="1" parent="WIyWlLk6GJQsqaUBKTNV-1">
          <mxGeometry x="220" width="360" height="40" as="geometry" />
        </mxCell>
        <mxCell id="g2LM-X_P6zVzMJMQ8mb0-37" style="edgeStyle=orthogonalEdgeStyle;rounded=0;orthogonalLoop=1;jettySize=auto;html=1;entryX=0;entryY=0.5;entryDx=0;entryDy=0;" edge="1" parent="WIyWlLk6GJQsqaUBKTNV-1" source="g2LM-X_P6zVzMJMQ8mb0-21" target="g2LM-X_P6zVzMJMQ8mb0-36">
          <mxGeometry relative="1" as="geometry" />
        </mxCell>
        <mxCell id="g2LM-X_P6zVzMJMQ8mb0-21" value="提交云元订单" style="rounded=0;whiteSpace=wrap;html=1;" vertex="1" parent="WIyWlLk6GJQsqaUBKTNV-1">
          <mxGeometry x="40" y="160" width="160" height="60" as="geometry" />
        </mxCell>
        <mxCell id="g2LM-X_P6zVzMJMQ8mb0-32" value="&lt;font style=&quot;font-size: 14px&quot;&gt;hysz-user-center&lt;br&gt;用户中心&lt;br&gt;&lt;/font&gt;" style="rounded=1;whiteSpace=wrap;html=1;" vertex="1" parent="WIyWlLk6GJQsqaUBKTNV-1">
          <mxGeometry x="600" y="40" width="160" height="80" as="geometry" />
        </mxCell>
        <mxCell id="g2LM-X_P6zVzMJMQ8mb0-40" style="edgeStyle=orthogonalEdgeStyle;rounded=0;orthogonalLoop=1;jettySize=auto;html=1;exitX=0.5;exitY=1;exitDx=0;exitDy=0;entryX=0.5;entryY=0;entryDx=0;entryDy=0;" edge="1" parent="WIyWlLk6GJQsqaUBKTNV-1" source="g2LM-X_P6zVzMJMQ8mb0-36" target="g2LM-X_P6zVzMJMQ8mb0-38">
          <mxGeometry relative="1" as="geometry" />
        </mxCell>
        <mxCell id="g2LM-X_P6zVzMJMQ8mb0-36" value="获取分布式事务锁&lt;br&gt;userId" style="rounded=0;whiteSpace=wrap;html=1;" vertex="1" parent="WIyWlLk6GJQsqaUBKTNV-1">
          <mxGeometry x="320" y="160" width="160" height="60" as="geometry" />
        </mxCell>
        <mxCell id="g2LM-X_P6zVzMJMQ8mb0-41" style="edgeStyle=orthogonalEdgeStyle;rounded=0;orthogonalLoop=1;jettySize=auto;html=1;entryX=0.5;entryY=0;entryDx=0;entryDy=0;" edge="1" parent="WIyWlLk6GJQsqaUBKTNV-1" source="g2LM-X_P6zVzMJMQ8mb0-38" target="g2LM-X_P6zVzMJMQ8mb0-39">
          <mxGeometry relative="1" as="geometry" />
        </mxCell>
        <mxCell id="g2LM-X_P6zVzMJMQ8mb0-38" value="开启本地事务" style="rounded=0;whiteSpace=wrap;html=1;" vertex="1" parent="WIyWlLk6GJQsqaUBKTNV-1">
          <mxGeometry x="320" y="270" width="160" height="60" as="geometry" />
        </mxCell>
        <mxCell id="g2LM-X_P6zVzMJMQ8mb0-48" value="" style="edgeStyle=orthogonalEdgeStyle;rounded=0;orthogonalLoop=1;jettySize=auto;html=1;" edge="1" parent="WIyWlLk6GJQsqaUBKTNV-1" source="g2LM-X_P6zVzMJMQ8mb0-39" target="g2LM-X_P6zVzMJMQ8mb0-47">
          <mxGeometry relative="1" as="geometry" />
        </mxCell>
        <mxCell id="g2LM-X_P6zVzMJMQ8mb0-52" style="edgeStyle=orthogonalEdgeStyle;rounded=0;orthogonalLoop=1;jettySize=auto;html=1;entryX=0;entryY=0.5;entryDx=0;entryDy=0;" edge="1" parent="WIyWlLk6GJQsqaUBKTNV-1" source="g2LM-X_P6zVzMJMQ8mb0-39" target="g2LM-X_P6zVzMJMQ8mb0-51">
          <mxGeometry relative="1" as="geometry" />
        </mxCell>
        <mxCell id="g2LM-X_P6zVzMJMQ8mb0-39" value="效验订单" style="rounded=0;whiteSpace=wrap;html=1;" vertex="1" parent="WIyWlLk6GJQsqaUBKTNV-1">
          <mxGeometry x="320" y="380" width="160" height="60" as="geometry" />
        </mxCell>
        <mxCell id="g2LM-X_P6zVzMJMQ8mb0-42" value="抛出效验失败异常" style="rounded=0;whiteSpace=wrap;html=1;" vertex="1" parent="WIyWlLk6GJQsqaUBKTNV-1">
          <mxGeometry x="40" y="480" width="160" height="60" as="geometry" />
        </mxCell>
        <mxCell id="g2LM-X_P6zVzMJMQ8mb0-46" value="NO" style="text;html=1;strokeColor=none;fillColor=none;align=center;verticalAlign=middle;whiteSpace=wrap;rounded=0;" vertex="1" parent="WIyWlLk6GJQsqaUBKTNV-1">
          <mxGeometry x="360" y="450" width="40" height="20" as="geometry" />
        </mxCell>
        <mxCell id="g2LM-X_P6zVzMJMQ8mb0-49" style="edgeStyle=orthogonalEdgeStyle;rounded=0;orthogonalLoop=1;jettySize=auto;html=1;entryX=1;entryY=0.5;entryDx=0;entryDy=0;" edge="1" parent="WIyWlLk6GJQsqaUBKTNV-1" source="g2LM-X_P6zVzMJMQ8mb0-47" target="g2LM-X_P6zVzMJMQ8mb0-42">
          <mxGeometry relative="1" as="geometry" />
        </mxCell>
        <mxCell id="g2LM-X_P6zVzMJMQ8mb0-47" value="本地事务回滚" style="rounded=0;whiteSpace=wrap;html=1;" vertex="1" parent="WIyWlLk6GJQsqaUBKTNV-1">
          <mxGeometry x="320" y="480" width="160" height="60" as="geometry" />
        </mxCell>
        <mxCell id="g2LM-X_P6zVzMJMQ8mb0-50" value="NO" style="text;html=1;strokeColor=none;fillColor=none;align=center;verticalAlign=middle;whiteSpace=wrap;rounded=0;" vertex="1" parent="WIyWlLk6GJQsqaUBKTNV-1">
          <mxGeometry x="240" y="480" width="40" height="20" as="geometry" />
        </mxCell>
        <mxCell id="g2LM-X_P6zVzMJMQ8mb0-51" value="效验订单" style="rounded=0;whiteSpace=wrap;html=1;" vertex="1" parent="WIyWlLk6GJQsqaUBKTNV-1">
          <mxGeometry x="600" y="380" width="160" height="60" as="geometry" />
        </mxCell>
        <mxCell id="g2LM-X_P6zVzMJMQ8mb0-53" value="&lt;span style=&quot;color: rgb(0 , 0 , 0) ; font-family: &amp;#34;helvetica&amp;#34; ; font-size: 12px ; font-style: normal ; font-weight: 400 ; letter-spacing: normal ; text-align: center ; text-indent: 0px ; text-transform: none ; word-spacing: 0px ; background-color: rgb(248 , 249 , 250) ; display: inline ; float: none&quot;&gt;YES&lt;br&gt;&lt;br&gt;&lt;/span&gt;" style="text;whiteSpace=wrap;html=1;" vertex="1" parent="WIyWlLk6GJQsqaUBKTNV-1">
          <mxGeometry x="530" y="380" width="40" height="30" as="geometry" />
        </mxCell>
      </root>
    </mxGraphModel>
  </diagram>
</mxfile>
